# xmcd
#
# Track frame offsets: 
#        150
#        12408
#        28190
#        43300
#        58365
#        72628
#        94800
#        112118
#        125778
#        138140
#        156168
#        173740
#
# Disc length: 2525 seconds
#
# Revision: 2
# Processed by: cddbd v1.5.1PL0 Copyright (c) Steve Scherf et al.
# Submitted via: ExactAudioCopy v0.95a5
#
DISCID=b709db0c
DTITLE=Tony Joe White - The Train I'm On
DYEAR=1972
DGENRE=Rock
TTITLE0=I've Got A Thing About You Baby
TTITLE1=The Family
TTITLE2=If I Ever Saw A Good Thing
TTITLE3=Beouf River Road
TTITLE4=The Train I'm On
TTITLE5=Even Trolls Love Rock and Roll
TTITLE6=As The Crow Flies
TTITLE7=Take Time To Love
TTITLE8=300 Pounds Of Hongry
TTITLE9=The Migrant
TTITLE10=Sidewalk Hobo
TTITLE11=The Gospel Singer
EXTD=
EXTT0=
EXTT1=
EXTT2=
EXTT3=
EXTT4=
EXTT5=
EXTT6=
EXTT7=
EXTT8=
EXTT9=
EXTT10=
EXTT11=
PLAYORDER=
